<svg xmlns="http://www.w3.org/2000/svg" viewBox="0 0 563.3 147.82"><defs><style>.cls-1,.cls-2,.cls-3,.cls-5,.cls-6,.cls-7,.cls-8,.cls-9{isolation:isolate;}.cls-2{fill:#ff0b23;}.cls-2,.cls-3,.cls-4,.cls-5,.cls-6,.cls-7,.cls-8,.cls-9{opacity:0.7;}.cls-3{fill:#ff4800;}.cls-5{fill:#f2b50a;}.cls-6{fill:#8d12dd;}.cls-7{fill:#1455f7;}.cls-8{fill:#11d336;}.cls-9{fill:#2c5efb;}</style></defs><g id="Camada_2" data-name="Camada 2"><g id="Camada_1-2" data-name="Camada 1"><g id="Grupo_2267" data-name="Grupo 2267"><g id="Grupo_12" data-name="Grupo 12"><g class="cls-1"><path d="M187.2,117.32a8.71,8.71,0,0,1,3.7,3.1,9.15,9.15,0,0,1,0,9.4,8.71,8.71,0,0,1-3.7,3.1,14.13,14.13,0,0,1-5.7,1.1h-4.9v6.8h-5.7v-24.6h10.6A12.62,12.62,0,0,1,187.2,117.32Zm-2.1,10.9a3.74,3.74,0,0,0,1.3-3.1,3.94,3.94,0,0,0-1.3-3.2,6.24,6.24,0,0,0-3.9-1.1h-4.6v8.5h4.6A6.24,6.24,0,0,0,185.1,128.22Z"/><path d="M199.4,139.72a9.77,9.77,0,0,1-3.7-13.4,8.69,8.69,0,0,1,3.7-3.4,11.78,11.78,0,0,1,5.3-1.2,11.2,11.2,0,0,1,5.3,1.2,9.77,9.77,0,0,1,3.7,13.4,8.69,8.69,0,0,1-3.7,3.4,11.49,11.49,0,0,1-5.3,1.2A10.36,10.36,0,0,1,199.4,139.72Zm8.8-4.6a6.2,6.2,0,0,0,0-7.6,4.6,4.6,0,0,0-3.4-1.4,4.83,4.83,0,0,0-3.5,1.4,5.86,5.86,0,0,0,0,7.6,4.83,4.83,0,0,0,3.5,1.4A4.6,4.6,0,0,0,208.2,135.12Z"/><path d="M248.4,121.92l-6.8,18.8h-5.2L232.1,129l-4.4,11.7h-5.2l-6.8-18.8h5.1l4.4,12.7,4.7-12.7h4.6l4.5,12.7,4.6-12.7Z"/><path d="M268.8,132.82H254.5a4.91,4.91,0,0,0,1.8,2.8,5.89,5.89,0,0,0,3.6,1,7.1,7.1,0,0,0,2.6-.4,6,6,0,0,0,2.1-1.4l2.9,3.2q-2.7,3-7.8,3a12.47,12.47,0,0,1-5.6-1.2,9.65,9.65,0,0,1-3.8-3.4,9.33,9.33,0,0,1-1.3-5,9.58,9.58,0,0,1,1.3-5,10.06,10.06,0,0,1,3.6-3.5,10.67,10.67,0,0,1,5.1-1.2,10.55,10.55,0,0,1,5,1.2,8.2,8.2,0,0,1,3.5,3.4,9.8,9.8,0,0,1,1.3,5.2C268.9,131.42,268.8,131.92,268.8,132.82Zm-12.8-6a4.33,4.33,0,0,0-1.5,2.9h9.3a5.09,5.09,0,0,0-1.5-2.9,4.69,4.69,0,0,0-3.1-1.1A4.77,4.77,0,0,0,256,126.82Z"/><path d="M280.4,122.32a9.2,9.2,0,0,1,3.8-.7v5c-.6,0-1-.1-1.2-.1a4.92,4.92,0,0,0-3.7,1.3,5.26,5.26,0,0,0-1.3,3.9v8.9h-5.5v-18.7h5.2v2.5A5.56,5.56,0,0,1,280.4,122.32Z"/><path d="M305.6,132.82H291.4a4.91,4.91,0,0,0,1.8,2.8,5.89,5.89,0,0,0,3.6,1,7.1,7.1,0,0,0,2.6-.4,6,6,0,0,0,2.1-1.4l2.9,3.2q-2.7,3-7.8,3a12.47,12.47,0,0,1-5.6-1.2,9.65,9.65,0,0,1-3.8-3.4,9.33,9.33,0,0,1-1.3-5,9.58,9.58,0,0,1,1.3-5,10.06,10.06,0,0,1,3.6-3.5,10.67,10.67,0,0,1,5.1-1.2,10.55,10.55,0,0,1,5,1.2,8.2,8.2,0,0,1,3.5,3.4,9.8,9.8,0,0,1,1.3,5.2C305.7,131.42,305.7,131.92,305.6,132.82Zm-12.8-6a4.33,4.33,0,0,0-1.5,2.9h9.3a5.09,5.09,0,0,0-1.5-2.9,4.69,4.69,0,0,0-3.1-1.1A5,5,0,0,0,292.8,126.82Z"/><path d="M328.5,114.72v26h-5.2v-2.2a7.39,7.39,0,0,1-5.9,2.5,9.5,9.5,0,0,1-4.8-1.2,8.56,8.56,0,0,1-3.4-3.4,11.44,11.44,0,0,1,0-10.2,8,8,0,0,1,3.4-3.4,9.5,9.5,0,0,1,4.8-1.2,7.09,7.09,0,0,1,5.6,2.3v-9.2Zm-6.7,20.4a5.86,5.86,0,0,0,0-7.6,4.76,4.76,0,0,0-3.4-1.4,4.83,4.83,0,0,0-3.5,1.4,5.86,5.86,0,0,0,0,7.6,4.83,4.83,0,0,0,3.5,1.4A4.6,4.6,0,0,0,321.8,135.12Z"/><path d="M359.4,122.82a8.56,8.56,0,0,1,3.4,3.4,11.44,11.44,0,0,1,0,10.2,8,8,0,0,1-3.4,3.4,9.5,9.5,0,0,1-4.8,1.2c-2.6,0-4.6-.8-5.9-2.5v2.2h-5.2v-26H349v9.1a7.45,7.45,0,0,1,5.7-2.3A10.64,10.64,0,0,1,359.4,122.82Zm-2.3,12.3a5.17,5.17,0,0,0,1.3-3.8,5.62,5.62,0,0,0-1.3-3.8,4.83,4.83,0,0,0-6.8,0,6.2,6.2,0,0,0,0,7.6,4.83,4.83,0,0,0,6.8,0Z"/><path d="M385.8,121.92l-8.5,20a9.86,9.86,0,0,1-3.2,4.6,7.78,7.78,0,0,1-4.6,1.3,9.82,9.82,0,0,1-2.9-.5,5.15,5.15,0,0,1-2.3-1.3l2-3.9a3.77,3.77,0,0,0,1.5.9,5,5,0,0,0,1.6.3,3.2,3.2,0,0,0,1.8-.5,5.57,5.57,0,0,0,1.3-1.8l.1-.2-8.2-19H370l5.3,12.8,5.3-12.8h5.2Z"/><path d="M403.3,139.52a13,13,0,0,1-4.8-4.5,11.92,11.92,0,0,1-1.7-6.5,12.85,12.85,0,0,1,1.7-6.5,12.26,12.26,0,0,1,4.8-4.5,13.94,13.94,0,0,1,6.8-1.6,15.75,15.75,0,0,1,5.8,1.1,10.58,10.58,0,0,1,4.3,3.2l-3.6,3.4a8.36,8.36,0,0,0-10.3-1.9,7.52,7.52,0,0,0-2.8,2.8,8.9,8.9,0,0,0,0,8.2,7.52,7.52,0,0,0,2.8,2.8,7.8,7.8,0,0,0,4.1,1,8,8,0,0,0,6.2-2.9l3.6,3.4a12.7,12.7,0,0,1-4.3,3.3,15.37,15.37,0,0,1-5.8,1.1A18.52,18.52,0,0,1,403.3,139.52Z"/><path d="M426.6,139.72a9.77,9.77,0,0,1-3.7-13.4,8.69,8.69,0,0,1,3.7-3.4,11.78,11.78,0,0,1,5.3-1.2,11.2,11.2,0,0,1,5.3,1.2,9.36,9.36,0,0,1,3.7,3.4,9.1,9.1,0,0,1,1.3,5,9.33,9.33,0,0,1-1.3,5,8.69,8.69,0,0,1-3.7,3.4,11.49,11.49,0,0,1-5.3,1.2A10.13,10.13,0,0,1,426.6,139.72Zm8.7-4.6a6.2,6.2,0,0,0,0-7.6,4.6,4.6,0,0,0-3.4-1.4,4.83,4.83,0,0,0-3.5,1.4,5.86,5.86,0,0,0,0,7.6,4.83,4.83,0,0,0,3.5,1.4A4.6,4.6,0,0,0,435.3,135.12Z"/><path d="M465,114.72v26h-5.2v-2.2a7.39,7.39,0,0,1-5.9,2.5,9.5,9.5,0,0,1-4.8-1.2,8.56,8.56,0,0,1-3.4-3.4,11.44,11.44,0,0,1,0-10.2,8,8,0,0,1,3.4-3.4,9.5,9.5,0,0,1,4.8-1.2,7.09,7.09,0,0,1,5.6,2.3v-9.2Zm-6.7,20.4a5.86,5.86,0,0,0,0-7.6,4.76,4.76,0,0,0-3.4-1.4,4.83,4.83,0,0,0-3.5,1.4,5.86,5.86,0,0,0,0,7.6,4.83,4.83,0,0,0,3.5,1.4A4.6,4.6,0,0,0,458.3,135.12Z"/><path d="M488.4,132.82H474.2a4.91,4.91,0,0,0,1.8,2.8,5.89,5.89,0,0,0,3.6,1,7.1,7.1,0,0,0,2.6-.4,6,6,0,0,0,2.1-1.4l2.9,3.2q-2.7,3-7.8,3a12.47,12.47,0,0,1-5.6-1.2,9.65,9.65,0,0,1-3.8-3.4,9.33,9.33,0,0,1-1.3-5,9.58,9.58,0,0,1,1.3-5,10.06,10.06,0,0,1,3.6-3.5,10.67,10.67,0,0,1,5.1-1.2,10.55,10.55,0,0,1,5,1.2,8.2,8.2,0,0,1,3.5,3.4,9.8,9.8,0,0,1,1.3,5.2C488.5,131.42,488.5,131.92,488.4,132.82Zm-12.8-6a4.33,4.33,0,0,0-1.5,2.9h9.3a5.09,5.09,0,0,0-1.5-2.9,4.69,4.69,0,0,0-3.1-1.1A5,5,0,0,0,475.6,126.82Z"/><path d="M497.5,139.52a13,13,0,0,1-4.8-4.5,11.92,11.92,0,0,1-1.7-6.5,12.85,12.85,0,0,1,1.7-6.5,11.62,11.62,0,0,1,4.8-4.5,13.94,13.94,0,0,1,6.8-1.6,15.75,15.75,0,0,1,5.8,1.1,10,10,0,0,1,4.3,3.2l-3.6,3.4a8.36,8.36,0,0,0-10.3-1.9,7.52,7.52,0,0,0-2.8,2.8,8.9,8.9,0,0,0,0,8.2,7.52,7.52,0,0,0,2.8,2.8,7.8,7.8,0,0,0,4.1,1,8,8,0,0,0,6.2-2.9l3.6,3.4a12.7,12.7,0,0,1-4.3,3.3,15.37,15.37,0,0,1-5.8,1.1A18.52,18.52,0,0,1,497.5,139.52Z"/><path d="M536.3,121.92v18.8h-5.2v-2.2a8.32,8.32,0,0,1-2.6,1.9,8.81,8.81,0,0,1-3.3.6,8.19,8.19,0,0,1-5.9-2.1,8.59,8.59,0,0,1-2.2-6.3v-10.7h5.5v9.8c0,3,1.3,4.5,3.8,4.5a4.08,4.08,0,0,0,3.2-1.3,5.41,5.41,0,0,0,1.2-3.8v-9.3h5.5Z"/><path d="M557.3,122.82a8.56,8.56,0,0,1,3.4,3.4,11.44,11.44,0,0,1,0,10.2,8,8,0,0,1-3.4,3.4,9.5,9.5,0,0,1-4.8,1.2,7.45,7.45,0,0,1-5.7-2.3v8.8h-5.5v-25.6h5.2V124a7.39,7.39,0,0,1,5.9-2.5A11.13,11.13,0,0,1,557.3,122.82Zm-2.3,12.3a5.17,5.17,0,0,0,1.3-3.8,5.62,5.62,0,0,0-1.3-3.8,4.6,4.6,0,0,0-3.4-1.4,4.44,4.44,0,0,0-3.4,1.4,6.2,6.2,0,0,0,0,7.6,4.83,4.83,0,0,0,6.8,0Z"/></g></g><g id="Grupo_33" data-name="Grupo 33"><rect id="Retângulo_1" data-name="Retângulo 1" class="cls-2" width="15.2" height="89.3"/><rect id="Retângulo_2" data-name="Retângulo 2" class="cls-2" y="36.7" width="58.9" height="15.4"/><rect id="Retângulo_3" data-name="Retângulo 3" class="cls-2" x="44" width="14.9" height="89.3"/><rect id="Retângulo_4" data-name="Retângulo 4" class="cls-2" x="108.7" y="32.9" width="15.4" height="56.4"/><path class="cls-2" d="M96.3,32.9a28.2,28.2,0,1,0,27.9,28.2A28,28,0,0,0,96.3,32.9Zm0,40.6a12.5,12.5,0,0,1,0-25,12.5,12.5,0,1,1,0,25Z"/><path id="Caminho_47" data-name="Caminho 47" class="cls-3" d="M170.4,52c3.4-3.6,6.9-7.2,10.3-10.8A27.62,27.62,0,0,0,161,32.9a28.2,28.2,0,0,0,0,56.4,35.65,35.65,0,0,0,7.3-1,27.48,27.48,0,0,0,12.5-7.4c-3.4-3.6-6.8-7.1-10.2-10.7a14.35,14.35,0,0,1-8.9,3.3c-5.1,0-11.4-3-13.2-9.1a12.78,12.78,0,0,1,4.6-13.6,13.66,13.66,0,0,1,11.4-2.2,19.32,19.32,0,0,1,5.9,3.4Z"/><path id="Caminho_50" data-name="Caminho 50" class="cls-3" d="M203.6,89.3H188.1V.2h15.5Z"/><g id="Grupo_24" data-name="Grupo 24" class="cls-4"><path id="Caminho_54" data-name="Caminho 54" class="cls-3" d="M208.54,63.65l6.8-.1a30.45,30.45,0,0,0,12.4-7.5c-1.4-1.3-10.3-9.3-19.7-8.1a25.94,25.94,0,0,0-4.8,1.2,23.53,23.53,0,0,0-9.9,7.1c-1,1.6-2.1,3.2-3.1,4.9l-2.1,7.4v20.6h15.5V71.05h0a9.88,9.88,0,0,1,1-4.5A7,7,0,0,1,208.54,63.65Z"/><path id="Caminho_55" data-name="Caminho 55" class="cls-3" d="M213.34,48.15c.8-.3,3.9-1.6,4.9-4.6a5.08,5.08,0,0,0,.3-1.7v-8.8h15.3v12.3a18.64,18.64,0,0,1-2.2,5.5,25.25,25.25,0,0,1-3.9,5.2,30.66,30.66,0,0,0-2.9-2.4c-1.1-.8-2.3-1.6-3.5-2.3a34.18,34.18,0,0,0-4.3-2.1A22.59,22.59,0,0,0,213.34,48.15Z"/><path id="Caminho_56" data-name="Caminho 56" class="cls-3" d="M217.84,67.25c.1.3.3.6.4.9s.2.9.3,1.3v19.6h15.4V69.55a17.84,17.84,0,0,0-6.1-13.5,32.3,32.3,0,0,1-12.4,7.5A23.49,23.49,0,0,1,217.84,67.25Z"/></g><rect id="Retângulo_5" data-name="Retângulo 5" class="cls-5" x="283.3" y="32.9" width="15.4" height="56.4"/><path class="cls-5" d="M270.9,32.9a28.2,28.2,0,1,0,27.9,28.2A28,28,0,0,0,270.9,32.9Zm0,40.6A12.5,12.5,0,1,1,283.3,61,12.5,12.5,0,0,1,270.9,73.5Z"/><rect id="Retângulo_6" data-name="Retângulo 6" class="cls-6" x="481.9" y="0.1" width="15.4" height="89.1"/><path class="cls-6" d="M469.4,32.9a28.2,28.2,0,1,0,27.9,28.2A28,28,0,0,0,469.4,32.9Zm0,40.6a12.45,12.45,0,0,1,0-24.9,12.57,12.57,0,0,1,12.5,12.5A12.42,12.42,0,0,1,469.4,73.5Z"/><rect id="Retângulo_7" data-name="Retângulo 7" class="cls-7" x="416.7" y="32.9" width="15.4" height="56.4"/><rect id="Retângulo_8" data-name="Retângulo 8" class="cls-7" x="416.7" y="0.6" width="15.4" height="15.4"/><path id="Caminho_57" data-name="Caminho 57" class="cls-8" d="M329.3,12.8v76H313.9V15h-6.2V.4h11.8a16.87,16.87,0,0,1,6,4.2C327.6,7.4,328.7,11.2,329.3,12.8Z"/><path id="Caminho_58" data-name="Caminho 58" class="cls-8" d="M342.7,36.9H313.8V52.4h28.9a27.55,27.55,0,0,0,13.9-6.5c1.6-1.4,8-7.1,9.2-16.4,1.4-11.1-4.9-21.4-13-26.2A22.76,22.76,0,0,0,346.1.7L307.5.6V15.2l34.3.2c1.2.3,7.5,5.5,7.9,9.9C349.7,30.2,349.3,32.6,342.7,36.9Z"/><path id="Caminho_59" data-name="Caminho 59" class="cls-9" d="M389.2,89.3H373.8V32.9h15.4V89.3Z"/><path id="Caminho_60" data-name="Caminho 60" class="cls-7" d="M399,49.3l10-9.7a18,18,0,0,0-6.8-5.4c-7-3.1-13.6-.4-15.5.4-5.5,2.5-8.3,6.8-10,9.5a30.57,30.57,0,0,0-2.9,5.7V89.2h15.4V52.3a6.89,6.89,0,0,1,3.4-3.9,6.34,6.34,0,0,1,4.5-.2Z"/><path id="Caminho_61" data-name="Caminho 61" class="cls-6" d="M562.3,57.5a27.9,27.9,0,1,0-27.7,31.6c8.9,0,17.4-3,22.5-9.6l-8.7-10.9c-1.7,1.2-5.5,4.2-10.2,4.8a14.65,14.65,0,0,1-12.3-3.6,12.71,12.71,0,0,1-2.6-14.4c2.2-4.6,7.3-7.6,12-7,5.5.7,9.2,4.9,10.8,7.5a30.32,30.32,0,0,1,2.8,6.4Z"/><path id="Caminho_62" data-name="Caminho 62" class="cls-6" d="M557.4,44.7l5.9,12.6L512.7,78.4l-5.5-12.3Z"/></g></g></g></g></svg>